<svg xmlns="http://www.w3.org/2000/svg" width="122" height="18" viewBox="0 0 122 18">
    <path fill="#14171A" fill-rule="nonzero" d="M61 0a1 1 0 0 1 .993.883L62 1v16a1 1 0 0 1-1.993.117L60 17V1a1 1 0 0 1 1-1zM21 2a1 1 0 0 1 .993.883L22 3v12a1 1 0 0 1-1.993.117L20 15V3a1 1 0 0 1 1-1zm80 0a1 1 0 0 1 .993.883L102 3v12a1 1 0 0 1-1.993.117L100 15V3a1 1 0 0 1 1-1zM81 6a1 1 0 0 1 .993.883L82 7v4a1 1 0 0 1-1.993.117L80 11V7a1 1 0 0 1 1-1zM41 6a1 1 0 0 1 .993.883L42 7v4a1 1 0 0 1-1.993.117L40 11V7a1 1 0 0 1 1-1zM1 6a1 1 0 0 1 .993.883L2 7v4a1 1 0 0 1-1.993.117L0 11V7a1 1 0 0 1 1-1zm120 0a1 1 0 0 1 .993.883L122 7v4a1 1 0 0 1-1.993.117L120 11V7a1 1 0 0 1 1-1z"/>
</svg>
