<svg xmlns="http://www.w3.org/2000/svg" width="24" height="24" viewBox="0 0 24 24">
    <path fill="#F0F0F0" fill-rule="evenodd" d="M16 0a8 8 0 0 1 8 8v8a8 8 0 0 1-8 8H8a8 8 0 0 1-8-8V8a8 8 0 0 1 8-8h8zM7.112 5.39H5.524l-.098.007a.722.722 0 0 0-.626.714v12.665l.007.097a.723.723 0 0 0 .717.624h1.588l.099-.007a.722.722 0 0 0 .626-.714v-4.78l.005-.191c.065-1.298.815-1.886 1.878-1.886.971 0 1.761.585 1.761 1.834v5.023l.007.097a.723.723 0 0 0 .717.624h1.588l.099-.007a.722.722 0 0 0 .626-.714V13.31l-.005-.244c-.101-2.563-1.798-3.927-3.781-3.927-1.336 0-2.349.483-2.895 1.229V6.11l-.007-.097a.723.723 0 0 0-.718-.624zm11.599 4.03h-1.588l-.098.007a.722.722 0 0 0-.627.715v8.633l.007.098a.723.723 0 0 0 .718.624h1.588l.098-.007a.722.722 0 0 0 .626-.715v-8.633l-.006-.098a.723.723 0 0 0-.718-.623zm-1.646-4.992a.592.592 0 0 0-.772.562v2.396l.007.091a.593.593 0 0 0 .85.436l2.407-1.198.087-.052a.588.588 0 0 0-.087-1.002L17.15 4.463z"/>
</svg>
